<?xml version="1.0" standalone="no"?>
<!DOCTYPE svg PUBLIC "-//W3C//DTD SVG 20010904//EN"
 "http://www.w3.org/TR/2001/REC-SVG-20010904/DTD/svg10.dtd">
<svg version="1.0" xmlns="http://www.w3.org/2000/svg"
 width="128.000000pt" height="128.000000pt" viewBox="0 0 128.000000 128.000000"
 preserveAspectRatio="xMidYMid meet">
<metadata>
Created by potrace 1.15, written by Peter Selinger 2001-2017
</metadata>
<g transform="translate(0.000000,128.000000) scale(0.100000,-0.100000)"
fill="#000000" stroke="none">
<path d="M428 1251 c-19 -17 -45 -59 -63 -102 l-31 -74 -139 -5 -140 -5 0 -50
0 -50 53 -3 52 -3 0 -425 c0 -401 1 -427 19 -463 38 -73 25 -71 456 -71 431 0
424 -1 463 68 22 39 22 43 22 465 l0 426 53 3 52 3 0 50 0 50 -140 5 -139 5
-31 74 c-18 43 -44 85 -63 102 l-32 29 -180 0 -180 0 -32 -29z m350 -93 c5 -7
17 -30 25 -50 l16 -38 -179 0 -179 0 16 38 c26 63 24 62 163 62 90 0 131 -4
138 -12z m232 -598 c0 -281 -3 -407 -12 -425 l-11 -25 -347 0 -347 0 -11 25
c-9 18 -12 144 -12 425 l0 400 370 0 370 0 0 -400z"/>
<path d="M377 793 c-4 -3 -7 -122 -7 -264 l0 -259 24 -6 c13 -3 37 -4 52 -2
l29 3 3 268 2 267 -48 0 c-27 0 -52 -3 -55 -7z"/>
<path d="M587 794 c-13 -13 -8 -509 5 -522 16 -16 83 -15 97 2 8 9 11 88 9
267 l-3 254 -50 3 c-28 2 -54 0 -58 -4z"/>
<path d="M802 533 l3 -268 29 -3 c15 -2 39 -1 52 2 l24 6 -2 263 -3 262 -53 3
-52 3 2 -268z"/>
</g>
</svg>
