<?xml version="1.0" encoding="utf-8"?>
<!-- Generator: Adobe Illustrator 21.0.0, SVG Export Plug-In . SVG Version: 6.00 Build 0)  -->
<svg version="1.1" id="Camada_1" xmlns="http://www.w3.org/2000/svg" xmlns:xlink="http://www.w3.org/1999/xlink" x="0px" y="0px"
	 viewBox="0 0 1000 1000" style="enable-background:new 0 0 1000 1000;" xml:space="preserve">
<g>
	<path fill="white" d="M146,1000c-0.3,0-0.7,0-1,0c-1-1.3-1.9-2.7-3-3.8C96,950.1,49.9,904,3.8,858c-1.1-1.1-2.5-2-3.8-3c0-0.3,0-0.7,0-1
		c0.5-0.4,1-0.8,1.5-1.3C117.9,736.3,234.3,620,350.6,503.6c1.1-1.1,2.2-2.4,3.9-4.2c-1.8-1.5-3.5-2.6-4.9-4
		C234.8,380.6,120.1,265.9,5.4,151.2c-1.8-1.8-3.6-3.5-5.4-5.2c0-0.3,0-0.7,0-1c1.3-1,2.7-1.9,3.8-3C49.9,96,96,49.9,142,3.8
		c1.1-1.1,2-2.5,3-3.8c0.3,0,0.7,0,1,0c0.3,0.4,0.6,0.8,1,1.1c116.5,116.6,233.1,233.1,349.7,349.7c1,1,2.1,2,4,3.7
		c1.4-1.7,2.5-3.3,3.9-4.7C619.3,235,734,120.2,848.8,5.4c1.8-1.8,3.5-3.6,5.2-5.4c0.3,0,0.7,0,1,0c0.9,1.2,1.7,2.4,2.7,3.4
		c46.3,46.3,92.6,92.6,138.9,138.9c1,1,2.3,1.8,3.4,2.7c0,0.3,0,0.7,0,1c-0.4,0.3-0.8,0.6-1.1,1
		C882.3,263.5,765.8,380.1,649.2,496.6c-1,1-2,2.1-3.7,4c1.7,1.4,3.4,2.5,4.7,3.9c114.7,114.6,229.3,229.3,344,344
		c1.9,1.9,3.8,3.7,5.7,5.6c0,0.3,0,0.7,0,1c-1.2,0.9-2.4,1.7-3.4,2.7c-46.3,46.3-92.6,92.6-138.9,138.9c-1,1-1.8,2.3-2.7,3.4
		c-0.3,0-0.7,0-1,0c-0.4-0.5-0.8-1-1.3-1.5C736.3,882.1,619.8,765.6,503.4,649.2c-1-1-2.1-2-4.3-4c-1.3,1.8-2.2,3.7-3.6,5.1
		C381,764.8,266.4,879.4,151.9,993.9C149.9,995.9,148,998,146,1000z"/>
</g>
</svg>
