<?xml version="1.0" standalone="no"?>
<!DOCTYPE svg PUBLIC "-//W3C//DTD SVG 20010904//EN"
 "http://www.w3.org/TR/2001/REC-SVG-20010904/DTD/svg10.dtd">
<svg version="1.0" xmlns="http://www.w3.org/2000/svg"
 width="128.000000pt" height="128.000000pt" viewBox="0 0 128.000000 128.000000"
 preserveAspectRatio="xMidYMid meet">

<g transform="translate(0.000000,128.000000) scale(0.100000,-0.100000)"
fill="#000" stroke="none">
<path fill="white" d="M72 1208 c-17 -17 -17 -1119 0 -1136 15 -15 575 -17 598 -2 13 8 15
45 15 235 0 237 -1 245 -45 245 -42 0 -45 -11 -48 -210 l-3 -190 -220 0 -219
0 0 490 0 490 220 0 220 0 0 -178 c0 -144 3 -182 16 -200 20 -29 50 -28 69 2
23 35 18 442 -5 456 -23 15 -583 13 -598 -2z"/>
<path fill="white" d="M870 931 c-5 -11 -10 -25 -10 -32 0 -6 46 -58 102 -115 l102 -104
-365 -2 -364 -3 -3 -30 c-7 -54 -2 -55 382 -55 l351 0 -105 -105 c-98 -99
-103 -105 -92 -130 8 -18 19 -25 39 -25 23 0 56 27 171 143 105 105 142 149
142 167 0 37 -275 310 -313 310 -16 0 -30 -8 -37 -19z"/>
</g>
</svg>
